# xmcd
#
# Track frame offsets: 
#        150
#        13506
#        24151
#        41934
#        57148
#        69184
#        82516
#        95725
#        112349
#        123696
#        135853
#        144365
#
# Disc length: 2194 seconds
#
# Revision: 0
# Processed by: cddbd v1.5.2PL0 Copyright (c) Steve Scherf et al.
# Submitted via: ExactAudioCopy v0.95b4
#
DISCID=9608900c
DTITLE=Dan Tyminski - Wheels
DYEAR=2008
DGENRE=Country
TTITLE0=Wheels
TTITLE1=Whose Shoulder Will You Cry On
TTITLE2=Making Hay
TTITLE3=Who Showed You
TTITLE4=It All Comes Down To You
TTITLE5=How Long Is This Train
TTITLE6=I Ain't Taking You Back No More
TTITLE7=Heads You Win Tails I Loose
TTITLE8=How Many Times
TTITLE9=The One You Lean On
TTITLE10=Knock Knock
TTITLE11=Some Early Morning
EXTD=
EXTT0=
EXTT1=
EXTT2=
EXTT3=
EXTT4=
EXTT5=
EXTT6=
EXTT7=
EXTT8=
EXTT9=
EXTT10=
EXTT11=
PLAYORDER=
